<svg xmlns="http://www.w3.org/2000/svg" viewBox="0 0 1600 900" role="img" aria-label="VNDC bright campus blockchain background">
  <defs>
    <linearGradient id="sky" x1="0" y1="0" x2="1" y2="1">
      <stop offset="0" stop-color="#f8fcff"/>
      <stop offset=".42" stop-color="#eaf6ff"/>
      <stop offset="1" stop-color="#ffffff"/>
    </linearGradient>
    <linearGradient id="blueRibbon" x1="0" y1="0" x2="1" y2="0">
      <stop offset="0" stop-color="#2563eb" stop-opacity=".08"/>
      <stop offset=".48" stop-color="#38bdf8" stop-opacity=".34"/>
      <stop offset="1" stop-color="#10b981" stop-opacity=".28"/>
    </linearGradient>
    <linearGradient id="glass" x1="0" y1="0" x2="1" y2="1">
      <stop offset="0" stop-color="#ffffff" stop-opacity=".84"/>
      <stop offset="1" stop-color="#bfdbfe" stop-opacity=".24"/>
    </linearGradient>
    <filter id="softShadow" x="-20%" y="-20%" width="140%" height="140%">
      <feDropShadow dx="0" dy="26" stdDeviation="22" flood-color="#1d4ed8" flood-opacity=".12"/>
    </filter>
  </defs>
  <rect width="1600" height="900" fill="url(#sky)"/>
  <path d="M0 740 C210 680 320 704 520 650 C760 586 930 514 1160 502 C1360 492 1480 540 1600 612 L1600 900 L0 900Z" fill="#dcfce7" opacity=".38"/>
  <path d="M0 782 C260 706 448 742 710 658 C960 578 1170 520 1600 562" fill="none" stroke="#60a5fa" stroke-width="34" stroke-opacity=".18"/>
  <path d="M-40 844 C246 742 488 765 790 668 C1050 584 1276 548 1640 576" fill="none" stroke="url(#blueRibbon)" stroke-width="74" stroke-linecap="round"/>
  <path d="M990 80 L1540 0 L1600 0 L1600 578 L1050 612 Z" fill="url(#glass)" filter="url(#softShadow)"/>
  <path d="M1080 124 L1516 62 L1516 502 L1100 538 Z" fill="#ffffff" opacity=".34"/>
  <g stroke="#93c5fd" stroke-opacity=".32" stroke-width="2">
    <path d="M1088 170 L1512 116"/>
    <path d="M1094 230 L1516 184"/>
    <path d="M1100 296 L1516 252"/>
    <path d="M1108 362 L1516 320"/>
    <path d="M1116 430 L1516 388"/>
    <path d="M1158 112 L1172 538"/>
    <path d="M1268 96 L1274 530"/>
    <path d="M1384 78 L1384 520"/>
    <path d="M1492 64 L1492 510"/>
  </g>
  <g stroke="#2563eb" stroke-opacity=".13" stroke-width="1">
    <path d="M0 90 H900"/>
    <path d="M0 150 H860"/>
    <path d="M0 210 H820"/>
    <path d="M90 0 V500"/>
    <path d="M150 0 V470"/>
    <path d="M210 0 V440"/>
    <path d="M270 0 V410"/>
  </g>
  <g fill="#2563eb" opacity=".22">
    <circle cx="92" cy="158" r="5"/>
    <circle cx="270" cy="92" r="4"/>
    <circle cx="414" cy="236" r="5"/>
    <circle cx="612" cy="156" r="4"/>
  </g>
  <g stroke="#2563eb" stroke-opacity=".16" stroke-width="2">
    <path d="M92 158 L270 92 L414 236 L612 156"/>
  </g>
  <path d="M740 676 C894 604 1066 534 1248 524 C1410 516 1510 552 1600 602" fill="none" stroke="#10b981" stroke-width="18" stroke-opacity=".24" stroke-linecap="round"/>
  <rect x="0" y="0" width="760" height="900" fill="url(#sky)" opacity=".68"/>
</svg>
